<?xml version="1.0" standalone="no"?><!DOCTYPE svg PUBLIC "-//W3C//DTD SVG 1.1//EN" "http://www.w3.org/Graphics/SVG/1.1/DTD/svg11.dtd"><svg t="1714454324493" class="icon" viewBox="0 0 1024 1024" version="1.1" xmlns="http://www.w3.org/2000/svg" p-id="51933" xmlns:xlink="http://www.w3.org/1999/xlink" width="200" height="200"><path d="M512.5 54C765.723 54 971 259.277 971 512.5S765.723 971 512.5 971 54 765.723 54 512.5 259.277 54 512.5 54z m0 64C294.624 118 118 294.624 118 512.5S294.624 907 512.5 907 907 730.376 907 512.5 730.376 118 512.5 118z m0 469.125c54.92 0 100.305 19.109 135.882 50.733 12.414 11.035 22.752 22.85 31.176 34.742 3.008 4.248 5.584 8.246 7.745 11.914l0.483 0.825 0.664 1.158 0.403 0.717 0.545 0.992 0.325 0.604 0.427 0.818 0.247 0.486c10.638 21.277-4.834 46.311-28.622 46.311h-298.55c-23.788 0-39.26-25.034-28.622-46.31l0.247-0.487 0.427-0.818 0.325-0.604 0.545-0.992 0.403-0.717 0.664-1.158 0.483-0.825c2.16-3.668 4.737-7.666 7.745-11.914 8.424-11.892 18.762-23.707 31.176-34.742 35.577-31.624 80.961-50.733 135.882-50.733z m0 64c-29.55 0-54.48 7.636-75.525 21.05l-0.391 0.25h151.831l-0.39-0.25c-20.771-13.24-45.329-20.85-74.376-21.046zM364.15 340.226l0.377 0.372 63.975 63.975c12.372 12.371 12.496 32.353 0.372 44.877l-0.372 0.377-63.975 63.975c-12.496 12.497-32.758 12.497-45.254 0-12.372-12.371-12.496-32.353-0.372-44.877l0.372-0.377L360.62 427.2l-41.347-41.348c-12.372-12.371-12.496-32.353-0.372-44.877l0.372-0.377c12.371-12.372 32.353-12.496 44.877-0.372z m341.577 0.372c12.372 12.371 12.496 32.353 0.372 44.877l-0.372 0.377L664.38 427.2l41.347 41.348c12.372 12.371 12.496 32.353 0.372 44.877l-0.372 0.377c-12.371 12.372-32.353 12.496-44.877 0.372l-0.377-0.372-63.975-63.975c-12.372-12.371-12.496-32.353-0.372-44.877l0.372-0.377 63.975-63.975c12.496-12.497 32.758-12.497 45.254 0z" p-id="51934"></path></svg>